<svg xmlns="http://www.w3.org/2000/svg" xmlns:xlink="http://www.w3.org/1999/xlink" width="790.274" height="274.365" viewBox="0 0 790.274 274.365"><defs><style>.a,.d,.i,.j,.k,.l{fill:none;}.b{clip-path:url(#a);}.c{font-size:11px;}.c,.m{font-family:UDShinGoNTPro-Regular, A-OTF UD Shin Go NT Pro;}.d{stroke:#000;stroke-width:0.3px;}.e{fill:#ff041b;}.f{fill:#feb432;}.g{fill:#00a4e4;}.h{fill:#171fe0;}.i{stroke:#ff041b;}.j{stroke:#171fe0;}.k{stroke:#feb432;}.l{stroke:#00a4e4;}.m{font-size:8px;}</style><clipPath id="a"><rect class="a" width="702" height="11"/></clipPath></defs><g transform="translate(-350 -147.635)"><g class="b" transform="translate(409 411)"><g transform="translate(-397 -410)"><text class="c" transform="translate(397 420)"><tspan x="0" y="0">4/1</tspan></text></g><g transform="translate(-286 -410)"><text class="c" transform="translate(397 420)"><tspan x="0" y="0">4/2</tspan></text></g><g transform="translate(-175 -410)"><text class="c" transform="translate(397 420)"><tspan x="0" y="0">4/3</tspan></text></g><g transform="translate(-64 -410)"><text class="c" transform="translate(397 420)"><tspan x="0" y="0">4/4</tspan></text></g><g transform="translate(47 -410)"><text class="c" transform="translate(397 420)"><tspan x="0" y="0">4/5</tspan></text></g><g transform="translate(158 -410)"><text class="c" transform="translate(397 420)"><tspan x="0" y="0">4/6</tspan></text></g><g transform="translate(269 -410)"><text class="c" transform="translate(397 420)"><tspan x="0" y="0">4/7</tspan></text></g></g><line class="d" x2="759.718" transform="translate(379.771 403.27)"/><line class="d" x2="759.718" transform="translate(380.282 353.27)"/><line class="d" x2="759.718" transform="translate(379.771 303.27)"/><line class="d" x2="759.718" transform="translate(379.771 253.27)"/><line class="d" x2="759.718" transform="translate(379.771 203.27)"/><line class="d" x2="759.718" transform="translate(379.771 153.27)"/><text class="c" transform="translate(358 407.635)"><tspan x="0" y="0">0</tspan></text><text class="c" transform="translate(354 357.635)"><tspan x="0" y="0">20</tspan></text><text class="c" transform="translate(354 307.635)"><tspan x="0" y="0">40</tspan></text><text class="c" transform="translate(354 257.635)"><tspan x="0" y="0">60</tspan></text><text class="c" transform="translate(354 207.635)"><tspan x="0" y="0">80</tspan></text><text class="c" transform="translate(350 157.635)"><tspan x="0" y="0">100</tspan></text><circle class="e" cx="5.5" cy="5.5" r="5.5" transform="translate(415 348)"/><circle class="e" cx="5.5" cy="5.5" r="5.5" transform="translate(526 298)"/><circle class="e" cx="5.5" cy="5.5" r="5.5" transform="translate(637 276)"/><circle class="e" cx="5.5" cy="5.5" r="5.5" transform="translate(748 322)"/><circle class="e" cx="5.5" cy="5.5" r="5.5" transform="translate(859 285)"/><circle class="e" cx="5.5" cy="5.5" r="5.5" transform="translate(970 311)"/><circle class="e" cx="5.5" cy="5.5" r="5.5" transform="translate(1081 260)"/><circle class="f" cx="5.5" cy="5.5" r="5.5" transform="translate(415 309)"/><circle class="f" cx="5.5" cy="5.5" r="5.5" transform="translate(526 265)"/><circle class="f" cx="5.5" cy="5.5" r="5.5" transform="translate(637 298)"/><circle class="f" cx="5.5" cy="5.5" r="5.5" transform="translate(748 262)"/><circle class="f" cx="5.5" cy="5.5" r="5.5" transform="translate(859 248)"/><circle class="f" cx="5.5" cy="5.5" r="5.5" transform="translate(970 259)"/><circle class="f" cx="5.5" cy="5.5" r="5.5" transform="translate(1081 278)"/><circle class="g" cx="5.5" cy="5.5" r="5.5" transform="translate(415 273)"/><circle class="g" cx="5.5" cy="5.5" r="5.5" transform="translate(526 284)"/><circle class="g" cx="5.5" cy="5.5" r="5.5" transform="translate(637 257)"/><circle class="g" cx="5.5" cy="5.5" r="5.5" transform="translate(748 210)"/><circle class="g" cx="5.5" cy="5.5" r="5.5" transform="translate(859 237)"/><circle class="g" cx="5.5" cy="5.5" r="5.5" transform="translate(970 235)"/><circle class="g" cx="5.5" cy="5.5" r="5.5" transform="translate(1081 228)"/><circle class="h" cx="5.5" cy="5.5" r="5.5" transform="translate(637 347.77)"/><circle class="h" cx="5.5" cy="5.5" r="5.5" transform="translate(526.5 361.27)"/><circle class="h" cx="5.5" cy="5.5" r="5.5" transform="translate(415 325.73)"/><circle class="h" cx="5.5" cy="5.5" r="5.5" transform="translate(748 339.73)"/><circle class="h" cx="5.5" cy="5.5" r="5.5" transform="translate(859 314.73)"/><circle class="h" cx="5.5" cy="5.5" r="5.5" transform="translate(970 347.77)"/><circle class="h" cx="5.5" cy="5.5" r="5.5" transform="translate(1081 362.77)"/><path class="i" d="M1707,400.5l112.309-50.127,110.562-21.6L2041.3,374.483l110.435-37.843L2262.761,361.8l110.761-49.707L2427,321.758" transform="translate(-1287 -47)"/><path class="j" d="M2427,379.642,2373.773,414.5l-111.36-14.17-110.945-33.722-111.093,26.129-110.363,7.656-111.4,13.923L1707,378.23l-40.575,13.36" transform="translate(-1287 -47)"/><path class="k" d="M2427,356.926l-53.326-26.483-110.326-19.724-111.425-9.869L2041.1,314.106l-111.584,36.5L1818.9,316.717,1707.5,361.5,1668,379.543" transform="translate(-1287 -47)"/><path class="l" d="M1666.771,334l40.047-9.25,111.048,11.36,112.1-26.812,110.72-47.374,111.079,27.811,110.514-2.986,110.892-6.053,53.826,9.04" transform="translate(-1287 -47)"/><path class="i" d="M1707.5,400.5l-40.409-31.706" transform="translate(-1287 -47)"/><text class="m" transform="translate(350 168)"><tspan x="0" y="0">（人）</tspan></text></g></svg>